<?xml version="1.0" encoding="utf-8"?>
<!-- Generator: Adobe Illustrator 22.1.0, SVG Export Plug-In . SVG Version: 6.00 Build 0)  -->
<svg version="1.1" id="Layer_1" xmlns="http://www.w3.org/2000/svg" xmlns:xlink="http://www.w3.org/1999/xlink" x="0px" y="0px"
	 viewBox="0 0 236 40" style="enable-background:new 0 0 236 40;" xml:space="preserve">
<style type="text/css">
	.st0{fill:#FFFFFF;stroke:#FFFFFF;stroke-width:0.5;stroke-miterlimit:10;}
	.st1{fill:#FFFFFF;}
</style>
<g>
	<path class="st0" d="M21.4,1.5c-9.9,0-18,8.4-18,18.8c0,10.3,8.1,18.8,18,18.8c9.9,0,18-8.4,18-18.8c0-5.1-1.9-9.8-5.3-13.4
		c-0.1-0.2-0.3-0.2-0.6-0.2h0c-0.2,0-0.4,0.1-0.5,0.2c-0.3,0.3-0.3,0.9,0,1.2c3.1,3.2,4.9,7.6,4.9,12.2c0,9-6.7,16.5-15.3,17l-0.3,0
		l0-0.3c0,0,0-34.6,0-34.7C22.2,1.8,21.8,1.5,21.4,1.5z M20.6,37.3l-0.3,0C12.1,36.7,5.6,29.9,5,21.3L5,21h15.6V37.3z M20.6,19.4H5
		l0-0.3c0.5-8.5,7.1-15.4,15.3-15.9l0.3,0V19.4z"/>
	<polygon class="st1" points="68.7,31 68.7,34.4 53.2,34.4 53.2,8.4 68.7,8.4 68.7,11.8 57.3,11.8 57.3,19.7 66.4,19.7 66.4,23 
		57.3,23 57.3,31 	"/>
	<path class="st1" d="M104.5,21.4c0,1.9-0.3,3.7-0.9,5.3c-0.6,1.6-1.4,3-2.5,4.1c-1.1,1.1-2.4,2-3.9,2.7c-1.5,0.6-3.2,0.9-5.1,0.9
		h-9.4V8.4H92c1.9,0,3.6,0.3,5.1,0.9c1.5,0.6,2.8,1.5,3.9,2.7c1.1,1.1,1.9,2.5,2.5,4.1C104.2,17.7,104.5,19.4,104.5,21.4
		 M100.3,21.4c0-1.5-0.2-2.8-0.6-4c-0.4-1.2-0.9-2.2-1.7-3c-0.7-0.8-1.6-1.4-2.6-1.9c-1-0.4-2.2-0.7-3.4-0.7h-5.3v19.1H92
		c1.3,0,2.4-0.2,3.4-0.7c1-0.4,1.9-1.1,2.6-1.9c0.7-0.8,1.3-1.8,1.7-3C100.1,24.2,100.3,22.9,100.3,21.4"/>
	<path class="st1" d="M138.3,21.4c0,1.9-0.3,3.7-0.9,5.3c-0.6,1.6-1.4,3-2.5,4.1c-1.1,1.1-2.4,2-3.9,2.7c-1.5,0.6-3.2,0.9-5.1,0.9
		h-9.4V8.4h9.4c1.9,0,3.6,0.3,5.1,0.9c1.5,0.6,2.8,1.5,3.9,2.7c1.1,1.1,1.9,2.5,2.5,4.1C138,17.7,138.3,19.5,138.3,21.4 M134.2,21.4
		c0-1.5-0.2-2.8-0.6-4c-0.4-1.2-0.9-2.2-1.7-3c-0.7-0.8-1.6-1.4-2.6-1.9c-1-0.4-2.2-0.7-3.4-0.7h-5.3V31h5.3c1.3,0,2.4-0.2,3.4-0.7
		c1-0.4,1.9-1.1,2.6-1.9c0.7-0.8,1.3-1.8,1.7-3C134,24.2,134.2,22.9,134.2,21.4"/>
	<path class="st1" d="M160.6,30.9c1,0,1.8-0.2,2.6-0.5c0.8-0.3,1.4-0.8,1.9-1.4c0.5-0.6,0.9-1.3,1.2-2.2c0.3-0.8,0.4-1.8,0.4-2.8
		V8.3h4V24c0,1.5-0.2,2.9-0.7,4.2c-0.5,1.3-1.1,2.4-2,3.4c-0.9,0.9-1.9,1.7-3.2,2.2c-1.2,0.5-2.6,0.8-4.2,0.8c-1.6,0-3-0.3-4.2-0.8
		c-1.3-0.5-2.3-1.3-3.2-2.2c-0.9-0.9-1.5-2.1-2-3.4c-0.5-1.3-0.7-2.7-0.7-4.2V8.3h4v15.6c0,1,0.1,2,0.4,2.8c0.3,0.8,0.7,1.6,1.2,2.2
		c0.5,0.6,1.2,1.1,1.9,1.4C158.8,30.7,159.7,30.9,160.6,30.9"/>
	<path class="st1" d="M194.5,30.9c1,0,1.8-0.2,2.6-0.5c0.8-0.3,1.4-0.8,1.9-1.4c0.5-0.6,0.9-1.3,1.2-2.2c0.3-0.8,0.4-1.8,0.4-2.8
		V8.4h4V24c0,1.5-0.2,2.9-0.7,4.2c-0.5,1.3-1.1,2.4-2,3.4c-0.9,0.9-1.9,1.7-3.2,2.2c-1.2,0.5-2.7,0.8-4.2,0.8c-1.6,0-3-0.3-4.2-0.8
		c-1.3-0.5-2.3-1.3-3.2-2.2c-0.9-0.9-1.5-2.1-2-3.4c-0.5-1.3-0.7-2.7-0.7-4.2V8.4h4V24c0,1,0.1,2,0.4,2.8c0.3,0.8,0.7,1.6,1.2,2.2
		c0.5,0.6,1.2,1.1,1.9,1.4C192.7,30.7,193.6,30.9,194.5,30.9"/>
	<path class="st1" d="M230.5,12.8c-0.1,0.2-0.3,0.4-0.4,0.5c-0.1,0.1-0.3,0.2-0.5,0.2c-0.2,0-0.5-0.1-0.7-0.3
		c-0.3-0.2-0.6-0.4-1-0.6c-0.4-0.2-0.9-0.4-1.4-0.6c-0.5-0.2-1.2-0.3-1.9-0.3c-0.7,0-1.3,0.1-1.8,0.3c-0.5,0.2-1,0.4-1.3,0.8
		c-0.4,0.3-0.6,0.7-0.8,1.1c-0.2,0.4-0.3,0.9-0.3,1.4c0,0.7,0.2,1.2,0.5,1.6c0.3,0.4,0.8,0.8,1.3,1.1c0.5,0.3,1.2,0.6,1.9,0.8
		c0.7,0.2,1.4,0.5,2.1,0.7c0.7,0.3,1.4,0.6,2.1,0.9c0.7,0.3,1.3,0.8,1.9,1.3c0.5,0.5,1,1.1,1.3,1.9c0.3,0.7,0.5,1.7,0.5,2.7
		c0,1.2-0.2,2.2-0.6,3.2c-0.4,1-0.9,1.9-1.6,2.6c-0.7,0.8-1.6,1.3-2.7,1.8c-1.1,0.4-2.3,0.6-3.6,0.6c-0.8,0-1.6-0.1-2.3-0.2
		c-0.8-0.2-1.5-0.4-2.2-0.7c-0.7-0.3-1.3-0.7-1.9-1.1c-0.6-0.4-1.1-0.9-1.6-1.4l1.2-2c0.1-0.2,0.2-0.3,0.4-0.4
		c0.2-0.1,0.3-0.1,0.5-0.1c0.3,0,0.6,0.1,0.9,0.4c0.3,0.3,0.7,0.5,1.2,0.8c0.5,0.3,1,0.6,1.6,0.8c0.6,0.3,1.4,0.4,2.3,0.4
		c1.5,0,2.6-0.4,3.4-1.1c0.8-0.7,1.2-1.8,1.2-3.1c0-0.7-0.2-1.3-0.5-1.8c-0.3-0.5-0.8-0.8-1.3-1.2c-0.5-0.3-1.2-0.6-1.9-0.8
		c-0.7-0.2-1.4-0.4-2.1-0.7s-1.4-0.5-2.1-0.9c-0.7-0.3-1.3-0.8-1.9-1.3c-0.5-0.5-1-1.2-1.3-2c-0.3-0.8-0.5-1.8-0.5-2.9
		c0-0.9,0.2-1.8,0.5-2.7c0.3-0.9,0.9-1.7,1.5-2.3c0.7-0.7,1.5-1.2,2.5-1.6c1-0.4,2.1-0.6,3.4-0.6c1.4,0,2.7,0.2,3.9,0.7
		c1.2,0.5,2.2,1.1,3.1,2L230.5,12.8z"/>
</g>
</svg>
